<svg t="1663053951611" class="icon" viewBox="0 0 1024 1024" version="1.1" xmlns="http://www.w3.org/2000/svg" p-id="4352" width="200" height="200"><path d="M923.06 668.78l-104.41-284.5c-0.02-0.05-0.06-0.08-0.08-0.13-0.13-0.35-0.33-0.65-0.55-0.95-0.03-0.04-0.03-0.09-0.06-0.12l-0.19-0.23c-0.09-0.1-0.15-0.21-0.25-0.3L560.31 72.01a4.042 4.042 0 0 0-5.32-0.82L119.96 350.67c-0.11 0.07-0.17 0.19-0.27 0.27-0.25 0.19-0.5 0.38-0.69 0.62-0.05 0.07-0.09 0.14-0.14 0.21-0.09 0.13-0.15 0.28-0.22 0.42-0.13 0.24-0.25 0.47-0.33 0.73-0.02 0.06-0.06 0.1-0.08 0.16-0.02 0.07 0 0.13-0.01 0.2-0.01 0.06-0.06 0.12-0.07 0.18-0.01 0.08 0.02 0.16 0.01 0.25-0.02 0.24-0.02 0.47 0 0.71 0.01 0.18 0.04 0.35 0.07 0.52 0.03 0.12 0.04 0.24 0.08 0.36 0.02 0.06 0.01 0.13 0.03 0.19l104.41 284.5c0.16 0.44 0.4 0.84 0.69 1.2L481.1 952.25c0.05 0.06 0.12 0.08 0.18 0.14 0.2 0.21 0.43 0.35 0.67 0.52 0.26 0.18 0.51 0.38 0.8 0.49 0.07 0.02 0.11 0.09 0.18 0.11 0.42 0.14 0.86 0.21 1.29 0.21 0.69 0 1.39-0.17 2.02-0.54 0.04-0.02 0.06-0.06 0.1-0.08 0.02-0.02 0.06-0.01 0.08-0.02L921.45 673.6a4.078 4.078 0 0 0 1.61-4.82zM423.07 408.19c-0.05 0.22-0.01 0.43-0.03 0.64-0.02 0.2-0.09 0.38-0.08 0.59 0 0.07 0.04 0.12 0.05 0.19 0.03 0.26 0.12 0.5 0.19 0.75 0.08 0.25 0.14 0.51 0.27 0.74 0.11 0.2 0.26 0.37 0.41 0.56 0.17 0.22 0.34 0.43 0.55 0.61 0.18 0.15 0.38 0.25 0.58 0.37 0.25 0.14 0.49 0.28 0.77 0.37 0.09 0.03 0.16 0.1 0.25 0.12 0.33 0.08 0.66 0.12 0.98 0.12 0.08 0 0.16 0 0.25-0.01l372.28-22.55-415.38 266.84 10.75-288.42 36.86 4.33-8.7 34.75z m-46.92 246.18L133.28 361.13l251.39 64.58-8.52 228.66z m57.61-288.88l-42.27-4.96c-0.06 0-0.1 0.02-0.16 0.02s-0.11-0.04-0.16-0.04c-0.36-0.02-0.7 0.08-1.04 0.16-0.11 0.02-0.23 0.02-0.34 0.05-0.3 0.1-0.56 0.26-0.82 0.42-0.21 0.12-0.43 0.23-0.61 0.38-0.12 0.11-0.2 0.24-0.31 0.36-0.25 0.27-0.48 0.54-0.64 0.87-0.09 0.17-0.11 0.36-0.17 0.54-0.09 0.26-0.22 0.5-0.25 0.79-0.01 0.06 0.02 0.11 0.01 0.17 0 0.05-0.04 0.1-0.04 0.15l-1.98 52.99-252.79-64.94 363.19-233.33-61.62 246.37z m122.6-285.52l250.25 302.14-374.3 22.68 73.06-292.06 50.99-32.76zM134.12 374.9l149.62 180.64 92.49 111.67 96.01 261.62-242.11-292.3-96.01-261.63z m352.17 568.6l-41.23-112.34-60.31-164.33 428.02-274.98 101.54 276.68L486.29 943.5z" p-id="4353"></path></svg>
